<svg xmlns="http://www.w3.org/2000/svg" xmlns:xlink="http://www.w3.org/1999/xlink" width="35.837" height="35.837" viewBox="0 0 35.837 35.837">
  <defs>
    <style>
      .cls-1 {
        fill: url(#linear-gradient);
      }
    </style>
    <linearGradient id="linear-gradient" y1="0.155" x2="1.129" y2="0.808" gradientUnits="objectBoundingBox">
      <stop offset="0" stop-color="#55d"/>
      <stop offset="1" stop-color="#3cfffa"/>
    </linearGradient>
  </defs>
  <path id="Icon_ionic-ios-contact" data-name="Icon ionic-ios-contact" class="cls-1" d="M21.294,3.375h0A17.911,17.911,0,0,0,3.478,19.407a17.267,17.267,0,0,0,0,3.773A17.911,17.911,0,0,0,21.294,39.212h0a17.919,17.919,0,1,0,0-35.837Zm11.7,28.093c-1.956-.741-5.126-1.826-7.1-2.412-.207-.06-.233-.078-.233-.922a4.9,4.9,0,0,1,.569-2.007,10.012,10.012,0,0,0,.793-2.722,6.053,6.053,0,0,0,1.172-2.834,3.781,3.781,0,0,0-.034-2.378,1.526,1.526,0,0,1-.052-.146,15.492,15.492,0,0,1,.267-3.343,6.155,6.155,0,0,0-1.284-4.419,6.585,6.585,0,0,0-5.04-2.412H20.544a6.576,6.576,0,0,0-5,2.412A6.129,6.129,0,0,0,14.255,14.7a15.491,15.491,0,0,1,.267,3.343c-.017.06-.034.1-.052.155a3.717,3.717,0,0,0-.034,2.378,6.146,6.146,0,0,0,1.172,2.834,10.426,10.426,0,0,0,.793,2.722,4.813,4.813,0,0,1,.327,2.033c0,.853-.034.861-.224.922-2.042.6-5.074,1.671-6.892,2.395A15.506,15.506,0,0,1,32.26,10.327a15.506,15.506,0,0,1,.732,21.141Z" transform="translate(-3.375 -3.375)"/>
</svg>
