<svg xmlns="http://www.w3.org/2000/svg" xmlns:xlink="http://www.w3.org/1999/xlink" width="20.231" height="35.837" viewBox="0 0 20.231 35.837">
  <defs>
    <style>
      .cls-1 {
        fill: url(#linear-gradient);
      }
    </style>
    <linearGradient id="linear-gradient" y1="0.253" x2="1.34" y2="0.78" gradientUnits="objectBoundingBox">
      <stop offset="0" stop-color="#55d"/>
      <stop offset="1" stop-color="#3cfffa"/>
    </linearGradient>
  </defs>
  <path id="Icon_metro-dollar2" data-name="Icon metro-dollar2" class="cls-1" d="M30.188,25.9a7.282,7.282,0,0,1-2.157,5.27,9.575,9.575,0,0,1-5.605,2.73v3.5a.6.6,0,0,1-.2.46.707.707,0,0,1-.5.18H18.8a.7.7,0,0,1-.488-.19.593.593,0,0,1-.206-.45V33.9a14.628,14.628,0,0,1-2.765-.62,15.207,15.207,0,0,1-2.2-.89,14.793,14.793,0,0,1-1.6-.96,12.223,12.223,0,0,1-1.008-.75q-.271-.24-.379-.36a.573.573,0,0,1-.043-.82l2.233-2.7a.692.692,0,0,1,.5-.24.561.561,0,0,1,.52.18l.043.04a11.692,11.692,0,0,0,5.269,2.5,8.187,8.187,0,0,0,1.6.16,5.575,5.575,0,0,0,3.09-.86,2.74,2.74,0,0,0,1.333-2.44,1.912,1.912,0,0,0-.325-1.06,3.818,3.818,0,0,0-.726-.84,6.026,6.026,0,0,0-1.268-.75q-.867-.41-1.431-.64t-1.735-.65q-.846-.32-1.334-.5t-1.334-.53q-.846-.35-1.355-.62t-1.225-.71a7.566,7.566,0,0,1-1.16-.85,12.859,12.859,0,0,1-.943-.98,4.84,4.84,0,0,1-.77-1.16,7.578,7.578,0,0,1-.455-1.33,6.426,6.426,0,0,1-.184-1.56,6.57,6.57,0,0,1,2.125-4.84,10.209,10.209,0,0,1,5.529-2.68v-3.6a.592.592,0,0,1,.206-.45A.7.7,0,0,1,18.8,2.2h2.927a.707.707,0,0,1,.5.18.6.6,0,0,1,.2.46v3.52a12.95,12.95,0,0,1,2.4.46,14.621,14.621,0,0,1,1.886.67,10.676,10.676,0,0,1,1.377.75q.651.42.846.58t.325.28a.547.547,0,0,1,.108.76l-1.756,2.92a.592.592,0,0,1-.5.32.734.734,0,0,1-.585-.14q-.065-.06-.314-.24t-.846-.53a11.509,11.509,0,0,0-1.268-.64,10.24,10.24,0,0,0-1.615-.52,7.808,7.808,0,0,0-1.854-.23,5.988,5.988,0,0,0-3.361.86,2.575,2.575,0,0,0-1.3,2.22,2.46,2.46,0,0,0,.184.96,2.261,2.261,0,0,0,.64.83,9.423,9.423,0,0,0,.856.66,7.841,7.841,0,0,0,1.214.62q.813.35,1.312.54t1.518.55q1.149.4,1.756.63t1.648.7a13.435,13.435,0,0,1,1.637.85,13.709,13.709,0,0,1,1.344,1,5.3,5.3,0,0,1,1.149,1.27,6.946,6.946,0,0,1,.683,1.53,6.121,6.121,0,0,1,.282,1.88Z" transform="translate(-9.957 -2.203)"/>
</svg>
