<svg xmlns="http://www.w3.org/2000/svg" xmlns:xlink="http://www.w3.org/1999/xlink" width="45.239" height="36.191" viewBox="0 0 45.239 36.191">
  <defs>
    <style>
      .cls-1 {
        fill: url(#linear-gradient);
      }
    </style>
    <linearGradient id="linear-gradient" x1="0.104" y1="0.071" x2="1" y2="0.814" gradientUnits="objectBoundingBox">
      <stop offset="0" stop-color="#55d"/>
      <stop offset="1" stop-color="#3cfffa"/>
    </linearGradient>
  </defs>
  <path id="Icon_awesome-laptop-code" data-name="Icon awesome-laptop-code" class="cls-1" d="M18.027,18.5a1.131,1.131,0,0,0,1.6,0l.8-.8a1.131,1.131,0,0,0,0-1.6L17.9,13.572l2.524-2.525a1.131,1.131,0,0,0,0-1.6l-.8-.8a1.131,1.131,0,0,0-1.6,0L13.9,12.772a1.131,1.131,0,0,0,0,1.6L18.027,18.5Zm6.787-.8.8.8a1.131,1.131,0,0,0,1.6,0l4.124-4.124a1.131,1.131,0,0,0,0-1.6L27.213,8.648a1.131,1.131,0,0,0-1.6,0l-.8.8a1.131,1.131,0,0,0,0,1.6l2.524,2.524L24.814,16.1a1.131,1.131,0,0,0,0,1.6ZM44.108,29.405H26.97a2.228,2.228,0,0,1-2.314,2.262h-4.3a2.4,2.4,0,0,1-2.316-2.262H1.131A1.134,1.134,0,0,0,0,30.536v1.131a4.537,4.537,0,0,0,4.524,4.524H40.715a4.537,4.537,0,0,0,4.524-4.524V30.536A1.134,1.134,0,0,0,44.108,29.405ZM40.715,3.393A3.4,3.4,0,0,0,37.322,0H7.917A3.4,3.4,0,0,0,4.524,3.393V27.143H40.715ZM36.191,22.62H9.048V4.524H36.191Z"/>
</svg>
